<?xml version="1.0" standalone="no"?>
<!DOCTYPE svg PUBLIC "-//W3C//DTD SVG 20010904//EN"
 "http://www.w3.org/TR/2001/REC-SVG-20010904/DTD/svg10.dtd">
<svg version="1.0" xmlns="http://www.w3.org/2000/svg"
 width="500.000000pt" height="500.000000pt" viewBox="0 0 500.000000 500.000000"
 preserveAspectRatio="xMidYMid meet">
<metadata>
Created by potrace 1.14, written by Peter Selinger 2001-2017
</metadata>
<g transform="translate(0.000000,500.000000) scale(0.100000,-0.100000)"
fill="#000000" stroke="none">
<path d="M2840 4060 c0 -30 -57 -53 -83 -35 -17 12 -23 10 -45 -10 -23 -21
-24 -27 -14 -49 15 -34 -2 -74 -35 -82 -18 -5 -23 -13 -23 -40 0 -27 6 -36 29
-48 33 -18 44 -48 29 -81 -8 -19 -7 -27 11 -46 17 -19 24 -21 45 -11 34 15 64
4 82 -29 21 -41 67 -41 88 0 18 33 48 44 82 29 21 -10 28 -8 45 11 17 18 19
27 11 50 -12 35 4 74 33 80 27 5 32 16 27 51 -3 21 -11 32 -27 36 -31 8 -48
47 -33 79 9 21 8 28 -7 45 -19 21 -50 27 -60 11 -10 -18 -65 9 -71 35 -5 20
-12 24 -45 24 -33 0 -39 -3 -39 -20z m117 -155 c51 -59 4 -165 -73 -165 -32 0
-83 32 -94 61 -22 52 1 113 50 132 33 14 95 -1 117 -28z"/>
<path d="M3498 3982 c-6 -15 -13 -38 -17 -51 -7 -25 -58 -58 -101 -66 -12 -2
-40 5 -61 15 -21 11 -44 20 -52 20 -7 0 -32 -20 -56 -44 l-44 -45 23 -55 c21
-54 22 -56 5 -100 -15 -40 -45 -81 -45 -62 0 4 -13 0 -29 -8 -16 -9 -31 -13
-34 -10 -12 12 -23 -34 -23 -91 l1 -60 54 -19 c47 -17 55 -25 72 -63 23 -54
23 -58 -1 -108 -11 -22 -19 -44 -20 -50 0 -14 82 -95 97 -95 7 0 32 10 57 22
l44 21 49 -21 c43 -18 50 -26 68 -74 l21 -53 70 -1 71 -2 18 54 c14 41 24 56
42 60 13 4 23 10 23 14 0 4 14 10 31 14 22 4 45 -1 79 -18 l47 -24 51 51 50
50 -25 52 -25 51 22 52 c17 39 29 54 49 59 14 3 32 10 39 16 6 5 12 6 12 2 0
-4 6 -2 14 4 9 8 13 32 12 79 l-1 67 -52 18 c-47 17 -53 23 -73 72 l-21 53 25
49 25 50 -47 46 c-26 26 -53 47 -60 47 -6 0 -28 -9 -48 -21 -34 -18 -42 -19
-81 -9 -24 7 -43 17 -43 21 0 5 -5 8 -11 7 -5 -2 -20 22 -33 52 l-22 54 -68 2
c-64 2 -68 1 -78 -24z m186 -306 c99 -58 132 -172 81 -280 -16 -33 -91 -101
-113 -101 -4 0 -11 -3 -17 -7 -19 -11 -120 -2 -152 15 -78 41 -123 117 -118
202 9 161 179 253 319 171z"/>
<path d="M2768 3543 c-10 -3 -18 -8 -18 -13 0 -23 -34 -41 -65 -36 -41 8 -59
-12 -50 -53 4 -20 1 -33 -10 -43 -39 -33 -43 -39 -38 -59 3 -12 14 -24 24 -26
22 -6 33 -35 24 -64 -9 -28 21 -62 45 -49 25 13 56 2 69 -26 14 -31 59 -30 67
2 6 25 39 37 63 24 11 -5 23 -2 37 9 16 13 19 22 12 40 -11 31 -3 54 24 66 30
14 34 51 5 66 -31 17 -37 30 -31 65 7 36 -15 59 -46 49 -27 -8 -60 3 -60 20 0
18 -29 33 -52 28z m66 -138 c34 -32 35 -77 1 -110 -52 -53 -143 -11 -132 61
12 71 80 97 131 49z"/>
<path d="M936 3472 c-43 -11 -64 -23 -95 -57 -22 -24 -44 -60 -50 -81 -7 -27
-11 -338 -11 -967 0 -1015 -3 -966 58 -1031 30 -32 105 -68 136 -65 12 1 213
1 448 0 l428 -1 -45 -127 c-25 -70 -45 -128 -45 -128 0 -1 -58 -2 -129 -2
-139 0 -161 -6 -161 -49 0 -50 -12 -49 736 -49 385 0 704 4 710 8 20 12 23 46
5 69 -17 20 -27 21 -160 22 l-143 1 -44 125 c-24 68 -44 126 -44 127 0 2 224
3 498 4 361 0 506 4 530 13 48 17 107 79 121 128 17 55 19 1107 2 1117 -5 4
-23 6 -38 5 -15 -1 -34 -3 -40 -3 -10 -1 -13 -87 -13 -396 0 -369 -1 -395 -17
-395 -57 -2 -400 -1 -408 1 -5 1 -14 0 -20 -1 -32 -7 -56 -6 -61 2 -3 4 -10 6
-15 2 -17 -10 -59 -12 -65 -3 -3 5 -13 5 -22 1 -9 -5 -28 -7 -42 -5 -14 2
-483 4 -1043 4 l-1017 1 2 790 3 790 34 28 c27 23 45 29 93 32 33 2 65 0 71
-4 6 -4 15 -4 19 -1 8 4 441 7 464 2 5 -1 12 -1 17 0 11 3 290 3 302 1 6 -1
12 -2 15 -1 8 2 555 2 566 0 5 -1 19 -1 31 0 18 1 21 6 20 46 -2 42 -5 46 -32
54 -16 4 -31 5 -33 1 -1 -3 -19 -5 -40 -3 -20 3 -348 5 -729 6 -552 2 -703 -1
-747 -11z m304 -1834 c0 -4 6 -5 14 -2 23 9 106 10 106 1 0 -5 4 -6 10 -2 13
8 375 9 389 1 6 -4 11 -4 11 1 0 6 242 9 260 2 3 -1 10 0 15 1 28 6 75 4 75
-3 0 -4 5 -5 10 -2 9 6 190 9 215 5 6 -1 15 -1 20 0 20 5 105 1 115 -5 5 -3
10 -3 10 2 0 7 142 9 175 2 6 -1 15 0 20 1 20 5 105 1 115 -5 5 -3 10 -3 10 2
0 7 142 9 175 2 6 -1 15 0 20 1 20 5 105 1 115 -5 5 -3 10 -3 10 2 0 9 202 8
225 -1 8 -3 15 -2 15 2 0 4 48 6 107 5 l108 -2 3 -100 c3 -97 2 -101 -25 -131
-34 -37 -51 -41 -178 -40 -55 1 -625 1 -1266 1 l-1167 1 -33 28 c-33 27 -33
27 -37 133 l-4 106 68 3 c126 5 294 3 294 -4z m1227 -495 c32 -95 38 -123 27
-124 -31 -1 -204 0 -211 1 -5 2 -12 2 -18 0 -11 -2 -206 -2 -220 1 -5 1 -14 0
-20 -1 -16 -4 -147 -1 -151 3 -2 2 15 58 38 125 l43 122 235 -2 234 -3 43
-122z"/>
<path d="M2141 1564 c-29 -21 -44 -60 -31 -82 21 -38 28 -43 58 -48 38 -6 82
31 82 69 0 54 -66 90 -109 61z"/>
<path d="M2925 3146 c-19 -44 -51 -58 -94 -40 -30 13 -34 12 -57 -11 -26 -26
-31 -54 -13 -72 19 -19 -9 -72 -45 -87 -29 -12 -31 -16 -28 -53 3 -33 9 -41
33 -50 37 -14 52 -51 36 -92 -10 -28 -9 -34 15 -57 23 -24 29 -25 57 -16 43
15 79 0 96 -41 12 -29 18 -33 50 -32 32 1 39 6 51 33 16 38 59 59 86 43 26
-16 40 -14 71 14 26 25 27 27 11 56 -14 28 -14 33 3 61 10 17 26 32 36 34 26
4 29 8 32 48 1 22 -4 41 -13 49 -8 6 -17 11 -18 10 -11 -7 -34 12 -43 36 -9
21 -9 33 3 56 15 28 14 30 -12 56 -25 25 -29 26 -57 15 -42 -18 -82 -3 -99 38
-11 27 -18 32 -51 33 -32 1 -38 -3 -50 -31z m103 -155 c44 -23 66 -59 65 -107
-4 -122 -168 -161 -221 -52 -33 64 -12 131 51 162 42 20 60 20 105 -3z"/>
<path d="M1154 3112 c-19 -19 -21 -1231 -2 -1250 9 -9 272 -12 1124 -12 978 0
1113 2 1124 15 9 11 12 87 12 305 0 159 -3 294 -6 298 -3 5 -19 7 -36 4 l-31
-4 1 -212 c1 -116 1 -238 1 -272 l-1 -61 -1065 0 -1065 0 2 441 3 441 525 1
c289 1 532 2 540 3 12 1 15 10 12 34 l-4 32 -536 0 -537 0 -2 88 c-1 61 2 87
10 88 7 1 257 3 557 4 300 1 550 3 557 4 7 0 12 15 11 34 l-1 33 -590 0 c-484
0 -592 -3 -603 -14z"/>
<path d="M2476 3044 c-4 -10 -14 -14 -26 -11 -23 6 -43 -14 -35 -36 4 -9 -2
-21 -15 -30 l-22 -15 22 -22 c12 -12 19 -28 16 -37 -9 -22 13 -46 29 -33 8 7
17 4 30 -10 22 -24 41 -26 53 -4 6 11 17 15 31 11 23 -6 42 18 33 42 -2 8 3
18 12 23 20 11 21 32 0 49 -8 7 -13 21 -11 31 6 22 -10 33 -40 29 -16 -1 -23
3 -23 13 0 21 -46 21 -54 0z m72 -93 c8 -52 -61 -69 -84 -22 -14 27 -1 58 26
64 23 6 55 -17 58 -42z"/>
<path d="M3934 2978 c-16 -32 -53 -45 -82 -29 -15 8 -24 6 -41 -10 -23 -22
-25 -32 -12 -57 12 -24 -4 -61 -33 -71 -13 -6 -26 -15 -28 -22 -8 -25 5 -62
24 -67 30 -7 47 -50 34 -84 -10 -26 -8 -31 14 -48 17 -13 29 -16 41 -9 30 16
74 0 86 -30 8 -22 17 -28 42 -29 25 0 32 4 37 23 8 32 59 53 86 36 18 -11 24
-9 47 13 22 23 24 29 13 46 -18 29 -5 66 29 80 24 10 29 18 29 46 0 27 -5 35
-24 40 -32 8 -52 54 -36 84 10 18 8 26 -10 45 -18 19 -27 22 -47 14 -37 -14
-70 -1 -81 31 -9 23 -16 28 -42 26 -24 -1 -36 -8 -46 -28z m72 -117 c22 -2 64
-47 70 -76 16 -84 -73 -147 -150 -106 -41 23 -58 84 -35 133 13 29 57 57 84
53 11 -2 25 -4 31 -4z"/>
<path d="M3427 2897 c-23 -29 -27 -31 -54 -21 -25 9 -31 8 -45 -11 -10 -13
-13 -27 -7 -36 13 -24 -1 -57 -27 -63 -17 -5 -24 -13 -24 -30 0 -21 29 -60 30
-40 1 5 8 -3 16 -19 10 -19 12 -32 5 -46 -8 -14 -5 -23 12 -40 16 -14 26 -18
34 -10 16 16 61 0 67 -24 8 -32 54 -33 66 -2 11 28 42 40 68 26 28 -15 54 16
46 56 -6 29 -3 35 40 70 14 12 11 53 -4 53 -23 0 -41 34 -36 65 8 40 -12 59
-51 51 -32 -7 -45 0 -61 29 -16 31 -47 28 -75 -8z m88 -103 c43 -28 41 -96 -4
-131 -26 -20 -70 -15 -96 12 -70 69 17 173 100 119z"/>
<path d="M2527 2784 c-31 -37 -40 -44 -57 -44 -10 0 -22 5 -25 11 -5 7 -16 3
-31 -12 -18 -17 -21 -26 -13 -41 13 -23 3 -58 -17 -58 -8 0 -20 -12 -26 -26
-11 -24 -9 -28 21 -54 31 -24 33 -30 24 -56 -9 -25 -7 -32 11 -46 15 -11 27
-13 38 -7 22 12 43 3 63 -27 21 -33 43 -30 75 8 25 29 30 31 53 21 35 -16 60
11 51 54 -6 31 -2 38 41 67 17 12 18 17 7 40 -7 15 -17 24 -22 21 -17 -10 -36
44 -23 64 9 14 7 21 -9 35 -11 10 -27 14 -39 11 -27 -9 -57 3 -64 24 -7 25
-42 33 -58 15z m55 -113 c4 -1 16 -11 28 -23 35 -38 22 -96 -28 -122 -51 -26
-112 16 -112 79 0 36 45 77 79 71 14 -2 29 -5 33 -5z"/>
<path d="M1367 2589 c-3 -10 0 -19 6 -20 7 0 164 -1 349 -2 335 -2 358 0 340
31 -5 7 -116 10 -349 11 -329 0 -341 -1 -346 -20z"/>
<path d="M2852 2529 c-7 -11 -21 -18 -35 -16 -18 2 -23 -4 -25 -30 -2 -21 -9
-33 -18 -33 -8 0 -14 -9 -14 -20 0 -11 6 -20 14 -20 9 0 16 -12 18 -32 2 -27
8 -33 27 -34 14 -1 29 -8 35 -15 14 -18 34 -18 45 -1 4 7 21 14 37 15 23 2 29
7 28 26 0 13 8 33 19 44 19 19 19 20 1 34 -10 7 -18 26 -19 41 0 23 -4 27 -28
27 -16 1 -32 7 -37 15 -13 20 -35 20 -48 -1z m54 -58 c19 -1 24 -44 9 -67 -25
-39 -84 -19 -85 28 0 23 26 47 47 43 10 -2 23 -4 29 -4z"/>
<path d="M2245 2490 c-13 -14 -22 -17 -30 -10 -15 13 -40 -13 -30 -30 4 -6 -3
-22 -15 -34 -20 -22 -20 -24 -4 -41 15 -15 19 -25 23 -68 1 -5 10 -6 20 -2 11
3 26 -1 36 -12 22 -22 45 -26 45 -7 0 14 5 16 45 18 15 1 21 9 23 31 2 17 10
34 18 38 18 10 18 33 -1 41 -8 3 -15 14 -15 25 0 36 -10 48 -35 43 -17 -3 -27
1 -31 12 -8 22 -27 20 -49 -4z m60 -66 c22 -22 15 -56 -14 -70 -30 -16 -50 -8
-62 24 -18 47 40 82 76 46z"/>
<path d="M1800 2383 c0 -4 -96 -7 -213 -6 -116 0 -215 -1 -219 -3 -3 -2 -4
-12 -2 -22 5 -16 30 -17 347 -17 295 0 343 2 348 15 4 8 5 18 3 22 -2 3 -58 6
-123 6 -66 0 -124 3 -130 7 -6 3 -11 3 -11 -2z"/>
<path d="M1408 2132 c-30 -3 -38 -7 -38 -23 0 -18 10 -19 349 -19 302 0 349 2
347 15 -1 8 -5 17 -8 20 -6 7 -585 12 -650 7z"/>
</g>
</svg>
